<svg width="361" height="800" viewBox="0 0 361 800" fill="none" xmlns="http://www.w3.org/2000/svg">
<path d="M277.922 775.617L285.593 647.801L306.773 611.645C306.773 611.645 258.567 631.365 177.861 631.365C97.1546 631.365 49.6789 612.01 49.6789 612.01L73.416 651.45L81.8132 775.617C81.8132 788.929 125.713 799.719 179.868 799.719C234.021 799.719 277.922 788.929 277.922 775.617ZM253.726 178.734L269.826 115.094L358.986 21.2763L335.487 1.26074L241.092 101.2L222.398 177.232C208.329 176.761 194.252 176.527 180.175 176.53C80.7602 176.53 0.167969 187.86 0.167969 201.833C0.167969 215.808 80.7602 227.136 180.175 227.136C279.588 227.136 360.179 215.808 360.179 201.833C360.179 191.543 316.47 182.687 253.726 178.734Z" fill="#D34A47"/>
<path d="M244.36 214.373C244.36 214.373 240.874 215.155 230.616 215.199C220.356 215.241 213.071 215.132 210.17 212.489C209.389 211.78 208.963 210.37 208.967 209.416C208.975 207.6 210.264 206.53 211.907 205.86L213.46 208.297C212.784 208.53 212.399 208.806 212.397 209.1C212.392 210.479 222.888 211.423 230.916 211.322C238.946 211.223 248.647 210.561 248.656 209.201C248.656 208.79 247.922 208.403 246.646 208.098L248.192 205.678C250.273 206.324 252.089 207.572 252.085 209.731C252.065 213.404 247.392 213.962 244.36 214.373Z" fill="white"/>
<path d="M358.811 21.4615C361.053 18.8721 357.651 12.2488 351.212 6.67001C344.771 1.09404 337.733 -1.32857 335.487 1.26083C333.243 3.85023 336.647 10.4735 343.088 16.0495C349.526 21.6269 356.568 24.0523 358.811 21.4615ZM273.634 463.413C271.521 443.083 318.103 413.638 306.148 412.695C280.412 414.167 267.604 442.855 254.656 472.902C249.911 483.914 233.675 530.871 223.026 525.09C212.38 519.312 236.828 480.698 243.68 457.767C235.774 463.565 206.777 486.093 199.304 464.995C187.29 475.199 161.618 480.727 164.514 453.924C158.123 465.245 143.778 481.052 126.559 474.483C103.947 465.86 139.662 393.83 148.542 397.464C157.424 401.097 146.75 417.505 143.954 423.877C137.806 437.9 130.704 455.528 135.448 459.136C143.577 465.319 165.697 435.748 166.189 435.098C170.326 429.633 182.113 393.874 191.612 397.98C201.112 402.086 167.918 449.299 180.329 458.669C182.832 460.56 193.074 457.503 199.304 450.762C203.335 446.401 201.949 436.744 215.386 404.698C228.824 372.654 240.8 332.748 250.015 335.788C259.231 338.827 251.635 359.309 248.329 366.944C232.815 402.78 205.988 461.985 218.64 457.503C231.292 453.022 237.88 452.759 250.268 438.262C262.657 423.764 262.086 399.884 270.343 400.392C278.603 400.9 277.217 408.557 275.214 414.387C283.341 405.087 313.738 385.5 321.077 404.899C329.769 427.866 277.587 461.04 290.598 459.349C303.283 457.699 323.834 444.683 332.609 432.848L356.762 215.709C356.762 215.709 332.458 235.822 177.837 235.822C23.2152 235.822 1.42578 216.127 1.42578 216.127L21.9883 414.324C32.9028 383.303 58.8208 320.558 99.6746 322.664C118.258 323.623 143.067 359.406 121.816 360.619C112.821 361.131 111.908 342.758 101.256 340.059C93.57 338.112 82.8689 344.36 75.953 351.131C62.1608 364.629 32.4972 417.886 36.4166 444.437C41.4102 478.287 83.1276 432.674 90.1862 419.132C95.1572 409.593 98.5156 381.33 109.388 384.296C120.261 387.261 108.439 416.428 100.558 442.216C91.7042 471.173 87.0498 501.719 75.953 498.205C64.8548 494.694 82.9325 457.312 82.2781 450.762C71.847 460.386 52.63 484.751 28.0449 472.691L40.8152 595.77C40.8152 595.77 74.7558 622.587 176.999 622.587C279.242 622.587 314.439 596.188 314.439 596.188L330.297 453.634C317.323 466.267 276.263 488.701 273.634 463.413Z" fill="#D34A47"/>
</svg>
