<svg width="220" height="222" viewBox="0 0 220 222" fill="none" xmlns="http://www.w3.org/2000/svg">
<path d="M20.7672 200.792C17.2472 200.792 14.1452 200.231 11.4612 199.109C8.79921 197.987 6.70921 196.315 5.19121 194.093C3.69521 191.849 2.94721 189.066 2.94721 185.744C2.94721 185.392 2.94721 185.073 2.94721 184.787C2.94721 184.479 2.94721 184.149 2.94721 183.797H13.2102C13.2102 184.127 13.2102 184.424 13.2102 184.688C13.2102 184.93 13.2102 185.216 13.2102 185.546C13.2102 187.812 13.8482 189.55 15.1242 190.76C16.4002 191.97 18.2922 192.575 20.8002 192.575C23.3302 192.575 25.2772 192.179 26.6412 191.387C28.0052 190.573 28.6872 189.242 28.6872 187.394C28.6872 186.096 28.1702 184.952 27.1362 183.962C26.1242 182.972 24.7382 182.092 22.9782 181.322C21.2402 180.53 19.2492 179.793 17.0052 179.111C14.5632 178.341 12.2972 177.329 10.2072 176.075C8.11721 174.821 6.43421 173.226 5.15821 171.29C3.90421 169.354 3.27721 166.967 3.27721 164.129C3.27721 161.269 4.03621 158.838 5.55421 156.836C7.07221 154.812 9.14021 153.272 11.7582 152.216C14.3762 151.138 17.3352 150.599 20.6352 150.599C24.0892 150.599 27.1362 151.138 29.7762 152.216C32.4382 153.272 34.5172 154.867 36.0132 157.001C37.5312 159.113 38.2902 161.753 38.2902 164.921C38.2902 165.273 38.2902 165.603 38.2902 165.911C38.2902 166.197 38.2902 166.527 38.2902 166.901H28.0602C28.0602 166.659 28.0602 166.406 28.0602 166.142C28.0602 165.878 28.0602 165.625 28.0602 165.383C28.0602 163.249 27.4662 161.61 26.2782 160.466C25.1122 159.322 23.2752 158.75 20.7672 158.75C18.3472 158.75 16.4662 159.19 15.1242 160.07C13.8042 160.95 13.1442 162.303 13.1442 164.129C13.1442 165.449 13.6172 166.571 14.5632 167.495C15.5312 168.419 16.8512 169.244 18.5232 169.97C20.1952 170.696 22.0982 171.422 24.2322 172.148C27.1362 173.16 29.6662 174.282 31.8222 175.514C34.0002 176.724 35.6832 178.253 36.8712 180.101C38.0592 181.927 38.6532 184.259 38.6532 187.097C38.6532 190.001 37.9052 192.476 36.4092 194.522C34.9132 196.568 32.8122 198.13 30.1062 199.208C27.4222 200.264 24.3092 200.792 20.7672 200.792ZM71.6033 200L64.2773 164.954H71.7353L79.0943 197.096L77.4113 197.162L81.9983 164.954H92.5583L85.5623 200H71.6033ZM47.2493 200L40.2533 164.954H50.8133L55.4003 197.162L53.7503 197.096L61.0433 164.954H68.5013L61.2413 200H47.2493ZM95.0355 200V164.954H105.166V200H95.0355ZM100.084 159.245C98.5005 159.245 97.1145 158.827 95.9265 157.991C94.7605 157.155 94.1775 155.978 94.1775 154.46C94.1775 152.92 94.7605 151.732 95.9265 150.896C97.1145 150.06 98.5005 149.642 100.084 149.642C101.69 149.642 103.076 150.06 104.242 150.896C105.43 151.732 106.024 152.92 106.024 154.46C106.024 156 105.43 157.188 104.242 158.024C103.076 158.838 101.69 159.245 100.084 159.245ZM110.705 214.421V164.954H120.968V214.421H110.705ZM131.792 200.792C129.02 200.792 126.479 200.055 124.169 198.581C121.859 197.085 120.011 195.083 118.625 192.575C117.239 190.045 116.546 187.207 116.546 184.061C116.546 183.973 116.546 183.896 116.546 183.83C116.546 183.742 116.546 183.643 116.546 183.533L120.968 183.434C120.968 183.5 120.968 183.566 120.968 183.632C120.968 183.698 120.968 183.764 120.968 183.83C120.968 185.458 121.364 186.888 122.156 188.12C122.948 189.33 123.971 190.265 125.225 190.925C126.479 191.585 127.788 191.915 129.152 191.915C131.396 191.915 133.343 191.145 134.993 189.605C136.665 188.043 137.501 185.612 137.501 182.312C137.501 179.012 136.676 176.614 135.026 175.118C133.376 173.6 131.418 172.841 129.152 172.841C127.788 172.841 126.479 173.171 125.225 173.831C123.971 174.469 122.948 175.382 122.156 176.57C121.364 177.758 120.968 179.177 120.968 180.827L116.546 180.563C116.546 177.395 117.239 174.601 118.625 172.181C120.011 169.739 121.859 167.814 124.169 166.406C126.479 164.998 129.02 164.294 131.792 164.294C134.63 164.294 137.281 164.998 139.745 166.406C142.209 167.792 144.2 169.827 145.718 172.511C147.258 175.195 148.028 178.462 148.028 182.312C148.028 186.338 147.28 189.726 145.784 192.476C144.288 195.226 142.308 197.305 139.844 198.713C137.38 200.099 134.696 200.792 131.792 200.792ZM156.331 185.546V178.781H179.563L178.573 180.497C178.573 180.321 178.573 180.156 178.573 180.002C178.573 179.826 178.573 179.661 178.573 179.507C178.573 178.253 178.276 177.054 177.682 175.91C177.088 174.744 176.164 173.798 174.91 173.072C173.678 172.324 172.094 171.95 170.158 171.95C168.222 171.95 166.55 172.368 165.142 173.204C163.756 174.018 162.689 175.195 161.941 176.735C161.215 178.275 160.852 180.134 160.852 182.312C160.852 184.556 161.204 186.481 161.908 188.087C162.634 189.671 163.701 190.892 165.109 191.75C166.539 192.608 168.31 193.037 170.422 193.037C171.786 193.037 172.963 192.916 173.953 192.674C174.943 192.41 175.746 192.08 176.362 191.684C177 191.288 177.484 190.848 177.814 190.364C178.144 189.88 178.342 189.407 178.408 188.945H188.506C188.374 190.419 187.868 191.871 186.988 193.301C186.108 194.709 184.887 195.985 183.325 197.129C181.763 198.251 179.86 199.142 177.616 199.802C175.394 200.462 172.853 200.792 169.993 200.792C166.121 200.792 162.744 200.022 159.862 198.482C156.98 196.92 154.747 194.775 153.163 192.047C151.579 189.297 150.787 186.129 150.787 182.543C150.787 178.913 151.59 175.734 153.196 173.006C154.824 170.256 157.079 168.122 159.961 166.604C162.865 165.064 166.22 164.294 170.026 164.294C173.92 164.294 177.286 165.075 180.124 166.637C182.962 168.177 185.151 170.344 186.691 173.138C188.231 175.91 189.001 179.144 189.001 182.84C189.001 183.39 188.99 183.918 188.968 184.424C188.946 184.93 188.913 185.304 188.869 185.546H156.331ZM193.394 200V164.954H203.657V177.032L201.545 175.712C201.787 174.062 202.227 172.544 202.865 171.158C203.503 169.772 204.328 168.573 205.34 167.561C206.352 166.527 207.551 165.724 208.937 165.152C210.345 164.58 211.951 164.294 213.755 164.294C215.163 164.294 216.263 164.404 217.055 164.624C217.869 164.822 218.375 164.976 218.573 165.086L216.89 174.26C216.692 174.15 216.252 173.974 215.57 173.732C214.888 173.49 214.008 173.369 212.93 173.369C211.17 173.369 209.696 173.666 208.508 174.26C207.32 174.854 206.363 175.646 205.637 176.636C204.933 177.604 204.427 178.682 204.119 179.87C203.811 181.058 203.657 182.257 203.657 183.467V200H193.394Z" fill="#0080FF"/>
<g clip-path="url(#clip0_146_594)">
<path d="M142.922 10.3459C161.173 21.6198 173.335 41.8071 173.335 64.835C173.335 100.181 144.681 128.835 109.335 128.835C101.627 128.835 94.2373 127.472 87.3956 124.973L86.6646 124.701L87.8549 124.318L89.3849 123.817L90.1397 123.564L90.8878 123.311L92.3637 122.803L93.8126 122.291L95.2345 121.776L96.6294 121.258L97.3167 120.997L98.6711 120.473C100.101 119.913 101.486 119.346 102.824 118.774L103.819 118.343L105.038 117.802C105.574 117.56 106.102 117.318 106.622 117.074L107.396 116.708L108.535 116.155L109.094 115.878L109.646 115.599L110.731 115.039C119.837 110.263 126.023 105.074 129.308 99.3849C136.267 87.3312 130.189 74.45 112.741 61.3181L111.322 60.2535L110.459 59.5921L109.622 58.9356L108.809 58.2842L108.022 57.6378L107.637 57.3165L107.259 56.9964L106.521 56.3599L105.984 55.8857L105.461 55.4143L104.785 54.79L104.133 54.1706L103.505 53.556L103.201 53.2505L102.902 52.9462L102.323 52.3412C95.426 45.0093 93.8858 38.7326 97.0171 33.3092C98.6108 30.5488 101.374 27.835 105.301 25.1919L105.778 24.8751L106.529 24.3919C106.869 24.1775 107.216 23.9636 107.571 23.7501L108.109 23.4304L108.939 22.9522L109.794 22.4758L110.453 22.1196L111.126 21.7645L112.047 21.2925C112.747 20.9393 113.47 20.5876 114.214 20.2376L114.966 19.8881L115.991 19.4238L116.513 19.1924L117.577 18.7311L118.119 18.5012L119.222 18.043L119.784 17.8147L120.926 17.3597L121.507 17.133L122.689 16.6812L123.896 16.2316L124.509 16.0076L125.756 15.5613L127.028 15.1174L128.327 14.6757L128.986 14.4558L130.323 14.0176L131.687 13.5819L133.076 13.1486L134.491 12.7178L135.933 12.2894L137.771 11.7575L139.65 11.2297L141.958 10.6017L142.922 10.3459ZM109.335 0.834961C117.118 0.834961 124.577 2.22425 131.476 4.76835L132.213 5.04534L131.746 5.18683L129.466 5.8895L128.72 6.12554L127.247 6.60038L125.801 7.07891L124.382 7.56118L122.99 8.04722L121.625 8.53705L120.952 8.7834L119.3 9.4035L117.689 10.0297L116.431 10.535L115.812 10.7892L114.594 11.3005C102.147 16.6049 93.9898 22.5526 90.0889 29.3092C83.2803 41.1019 89.4558 53.8146 106.905 66.9431L108.325 68.0077L109.187 68.6696L110.024 69.3267L110.433 69.6535L111.232 70.3036L111.815 70.7881L112.384 71.27L113.121 71.9084L113.48 72.2259L114.18 72.8574C114.561 73.207 114.932 73.5545 115.29 73.8999L115.82 74.4164L116.583 75.1854L117.308 75.9473C124.175 83.3303 125.643 89.7325 122.38 95.3849C120.268 99.0424 116.236 102.643 110.294 106.138L109.748 106.456L108.864 106.957L107.954 107.456C107.441 107.733 106.916 108.009 106.378 108.285L105.563 108.697L104.56 109.191L103.531 109.683L102.476 110.174L101.939 110.418L100.845 110.906L99.7238 111.393L98.5768 111.877L97.9934 112.118L96.807 112.6L96.204 112.84L95.5944 113.08L94.3555 113.558L93.0904 114.034L91.799 114.508L90.4815 114.98L89.1377 115.45L88.456 115.684L87.0729 116.151L86.3715 116.383L84.9491 116.847L83.5005 117.308L81.6529 117.882L79.7644 118.453L78.2242 118.906L76.0747 119.524C57.6422 108.29 45.335 87.9999 45.335 64.835C45.335 29.4887 73.9887 0.834961 109.335 0.834961Z" fill="#0080FF"/>
</g>
<defs>
<clipPath id="clip0_146_594">
<rect width="129" height="129" fill="white" transform="translate(45)"/>
</clipPath>
</defs>
</svg>
