<svg width="294" height="295" viewBox="0 0 294 295" fill="none" xmlns="http://www.w3.org/2000/svg">
<path d="M14.5406 275.072L1.86863 221.9H16.0886L24.4406 267.44H23.9006L32.2166 221.9H46.4366L33.8366 275.072H14.5406ZM68.8818 275.9C65.0178 275.9 61.5738 275.276 58.5498 274.028C55.5258 272.78 53.1498 270.932 51.4218 268.484C49.6938 266.012 48.8298 262.94 48.8298 259.268C48.8298 258.932 48.8298 258.608 48.8298 258.296C48.8298 257.984 48.8298 257.648 48.8298 257.288H61.6818C61.6818 257.6 61.6818 257.9 61.6818 258.188C61.6818 258.452 61.6818 258.728 61.6818 259.016C61.6818 261.104 62.2818 262.76 63.4818 263.984C64.7058 265.208 66.5418 265.82 68.9898 265.82C71.4138 265.82 73.2858 265.448 74.6058 264.704C75.9498 263.96 76.6218 262.736 76.6218 261.032C76.6218 259.808 76.0578 258.704 74.9298 257.72C73.8258 256.736 72.3258 255.836 70.4298 255.02C68.5338 254.18 66.3978 253.4 64.0218 252.68C61.4298 251.864 59.0058 250.784 56.7498 249.44C54.4938 248.072 52.6698 246.332 51.2778 244.22C49.8858 242.084 49.1898 239.444 49.1898 236.3C49.1898 233.084 50.0538 230.348 51.7818 228.092C53.5338 225.812 55.8858 224.072 58.8378 222.872C61.8138 221.648 65.1498 221.036 68.8458 221.036C72.6618 221.036 76.0578 221.636 79.0338 222.836C82.0338 224.036 84.3978 225.812 86.1258 228.164C87.8538 230.516 88.7178 233.42 88.7178 236.876C88.7178 237.236 88.7178 237.572 88.7178 237.884C88.7178 238.196 88.7178 238.52 88.7178 238.856H75.9018C75.9018 238.688 75.9018 238.472 75.9018 238.208C75.9018 237.92 75.9018 237.68 75.9018 237.488C75.9018 235.544 75.3618 233.996 74.2818 232.844C73.2018 231.668 71.4378 231.08 68.9898 231.08C66.6138 231.08 64.7778 231.512 63.4818 232.376C62.1858 233.24 61.5378 234.536 61.5378 236.264C61.5378 237.512 62.0418 238.58 63.0498 239.468C64.0578 240.356 65.4378 241.172 67.1898 241.916C68.9418 242.636 70.9338 243.392 73.1658 244.184C76.3578 245.288 79.1538 246.512 81.5538 247.856C83.9538 249.2 85.8138 250.88 87.1338 252.896C88.4538 254.912 89.1138 257.492 89.1138 260.636C89.1138 263.9 88.2498 266.672 86.5218 268.952C84.8178 271.208 82.4418 272.936 79.3938 274.136C76.3458 275.312 72.8418 275.9 68.8818 275.9ZM154.971 255.272C154.971 257.624 154.515 260.012 153.603 262.436C152.715 264.86 151.359 267.092 149.535 269.132C147.711 271.148 145.395 272.78 142.587 274.028C139.803 275.276 136.503 275.9 132.687 275.9C127.623 275.9 123.291 274.736 119.691 272.408C116.091 270.056 113.343 266.816 111.447 262.688C109.551 258.56 108.603 253.808 108.603 248.432C108.603 243.056 109.551 238.316 111.447 234.212C113.343 230.084 116.091 226.856 119.691 224.528C123.291 222.2 127.623 221.036 132.687 221.036C136.887 221.036 140.475 221.78 143.451 223.268C146.427 224.756 148.815 226.688 150.615 229.064C152.415 231.44 153.651 233.96 154.323 236.624C154.755 238.352 154.971 240.02 154.971 241.628H142.083C142.083 240.884 142.035 240.2 141.939 239.576C141.699 237.92 141.183 236.468 140.391 235.22C139.599 233.948 138.555 232.952 137.259 232.232C135.963 231.512 134.439 231.152 132.687 231.152C130.575 231.152 128.691 231.764 127.035 232.988C125.403 234.188 124.095 236.06 123.111 238.604C122.151 241.148 121.671 244.424 121.671 248.432C121.671 252.44 122.151 255.728 123.111 258.296C124.095 260.864 125.403 262.76 127.035 263.984C128.691 265.208 130.575 265.82 132.687 265.82C134.175 265.82 135.495 265.544 136.647 264.992C137.823 264.44 138.807 263.684 139.599 262.724C140.415 261.74 141.027 260.612 141.435 259.34C141.867 258.068 142.083 256.712 142.083 255.272H154.971ZM179.16 275.864C174.936 275.864 171.216 275.024 168 273.344C164.808 271.64 162.3 269.288 160.476 266.288C158.676 263.288 157.776 259.832 157.776 255.92C157.776 251.984 158.676 248.528 160.476 245.552C162.3 242.552 164.808 240.212 168 238.532C171.216 236.852 174.936 236.012 179.16 236.012C183.384 236.012 187.092 236.852 190.284 238.532C193.5 240.212 196.008 242.552 197.808 245.552C199.632 248.528 200.544 251.984 200.544 255.92C200.544 259.832 199.632 263.288 197.808 266.288C196.008 269.288 193.5 271.64 190.284 273.344C187.092 275.024 183.384 275.864 179.16 275.864ZM179.16 265.964C180.888 265.964 182.376 265.544 183.624 264.704C184.872 263.864 185.832 262.7 186.504 261.212C187.176 259.7 187.512 257.936 187.512 255.92C187.512 253.88 187.176 252.116 186.504 250.628C185.832 249.14 184.872 247.988 183.624 247.172C182.376 246.356 180.888 245.948 179.16 245.948C177.456 245.948 175.968 246.356 174.695 247.172C173.448 247.988 172.488 249.14 171.816 250.628C171.144 252.116 170.808 253.88 170.808 255.92C170.808 257.936 171.144 259.7 171.816 261.212C172.488 262.7 173.448 263.864 174.695 264.704C175.968 265.544 177.456 265.964 179.16 265.964ZM220.672 275.9C217.48 275.9 214.516 275.144 211.78 273.632C209.068 272.096 206.884 269.828 205.228 266.828C203.572 263.828 202.744 260.108 202.744 255.668C202.744 251.444 203.596 247.868 205.3 244.94C207.004 242.012 209.224 239.792 211.96 238.28C214.696 236.768 217.6 236.012 220.672 236.012C223.72 236.012 226.492 236.804 228.988 238.388C231.484 239.948 233.476 242.084 234.964 244.796C236.452 247.508 237.196 250.616 237.196 254.12C237.196 254.24 237.196 254.36 237.196 254.48C237.196 254.6 237.196 254.732 237.196 254.876L232.228 254.912C232.228 254.84 232.228 254.768 232.228 254.696C232.228 254.6 232.228 254.516 232.228 254.444C232.228 252.74 231.82 251.312 231.004 250.16C230.212 248.984 229.204 248.096 227.98 247.496C226.756 246.872 225.484 246.56 224.164 246.56C222.028 246.56 220.132 247.28 218.476 248.72C216.82 250.136 215.992 252.452 215.992 255.668C215.992 258.884 216.82 261.236 218.476 262.724C220.132 264.212 222.028 264.956 224.164 264.956C225.532 264.956 226.828 264.632 228.052 263.984C229.276 263.336 230.272 262.412 231.04 261.212C231.832 259.988 232.228 258.536 232.228 256.856L237.196 257.144C237.196 260.624 236.452 263.78 234.964 266.612C233.5 269.444 231.52 271.7 229.024 273.38C226.528 275.06 223.744 275.9 220.672 275.9ZM232.228 275V218.732H245.08V275H232.228ZM255.927 259.556V251.528H279.867L278.787 253.4C278.787 253.208 278.787 253.016 278.787 252.824C278.787 252.608 278.787 252.416 278.787 252.248C278.787 251.168 278.511 250.1 277.959 249.044C277.407 247.964 276.531 247.076 275.331 246.38C274.131 245.66 272.559 245.3 270.615 245.3C268.695 245.3 267.063 245.708 265.719 246.524C264.399 247.316 263.391 248.492 262.695 250.052C262.023 251.588 261.687 253.448 261.687 255.632C261.687 257.912 262.011 259.868 262.659 261.5C263.331 263.108 264.351 264.344 265.719 265.208C267.087 266.048 268.839 266.468 270.975 266.468C272.295 266.468 273.423 266.36 274.359 266.144C275.319 265.928 276.087 265.652 276.663 265.316C277.263 264.956 277.707 264.572 277.995 264.164C278.307 263.732 278.499 263.312 278.571 262.904H291.243C291.099 264.56 290.523 266.168 289.515 267.728C288.507 269.264 287.115 270.656 285.339 271.904C283.587 273.128 281.451 274.1 278.931 274.82C276.435 275.54 273.603 275.9 270.435 275.9C266.091 275.9 262.311 275.06 259.095 273.38C255.879 271.676 253.383 269.324 251.607 266.324C249.855 263.324 248.979 259.868 248.979 255.956C248.979 251.972 249.879 248.492 251.679 245.516C253.479 242.516 255.987 240.188 259.203 238.532C262.443 236.852 266.187 236.012 270.435 236.012C274.827 236.012 278.619 236.864 281.811 238.568C285.003 240.248 287.463 242.624 289.191 245.696C290.919 248.768 291.783 252.38 291.783 256.532C291.783 257.18 291.771 257.768 291.747 258.296C291.723 258.824 291.687 259.244 291.639 259.556H255.927Z" fill="#007ACC"/>
<g clip-path="url(#clip0_146_590)">
<mask id="mask0_146_590" style="mask-type:alpha" maskUnits="userSpaceOnUse" x="47" y="0" width="200" height="200">
<path fill-rule="evenodd" clip-rule="evenodd" d="M188.824 198.634C191.974 199.861 195.566 199.783 198.745 198.253L239.922 178.439C244.248 176.357 247 171.978 247 167.174V32.8266C247 28.0226 244.249 23.6436 239.922 21.5616L198.745 1.74751C194.572 -0.260259 189.689 0.231519 186.027 2.8939C185.504 3.27422 185.006 3.69886 184.538 4.16682L105.71 76.083L71.3744 50.0192C68.178 47.593 63.7073 47.7918 60.7387 50.4922L49.7261 60.5098C46.0949 63.8128 46.0907 69.5254 49.7171 72.834L79.4942 100L49.7171 127.166C46.0907 130.475 46.0949 136.188 49.7261 139.491L60.7387 149.508C63.7073 152.209 68.178 152.407 71.3744 149.981L105.71 123.917L184.538 195.833C185.785 197.081 187.249 198.021 188.824 198.634ZM197.03 54.5978L137.218 100L197.03 145.402V54.5978Z" fill="white"/>
</mask>
<g mask="url(#mask0_146_590)">
<path d="M239.923 21.5925L198.714 1.75115C193.944 -0.545485 188.244 0.423283 184.5 4.16672L49.5976 127.166C45.9691 130.475 45.9733 136.187 49.6066 139.49L60.6259 149.508C63.5963 152.208 68.0699 152.407 71.2681 149.981L233.722 26.7399C239.172 22.6053 247 26.4925 247 33.3335V32.8551C247 28.0531 244.25 23.6757 239.923 21.5925Z" fill="#0065A9"/>
<g filter="url(#filter0_d_146_590)">
<path d="M239.923 178.408L198.714 198.249C193.944 200.546 188.244 199.577 184.5 195.833L49.5976 72.8339C45.9691 69.5255 45.9733 63.8127 49.6066 60.5097L60.6259 50.4921C63.5963 47.7917 68.0699 47.5929 71.2681 50.0191L233.722 173.26C239.172 177.395 247 173.508 247 166.667V167.145C247 171.947 244.25 176.324 239.923 178.408Z" fill="#007ACC"/>
</g>
<g filter="url(#filter1_d_146_590)">
<path d="M198.716 198.253C193.944 200.548 188.244 199.577 184.5 195.833C189.113 200.446 197 197.179 197 190.656V9.34426C197 2.82078 189.113 -0.446211 184.5 4.16658C188.244 0.422805 193.944 -0.547331 198.716 1.74727L239.917 21.5614C244.247 23.6434 247 28.0224 247 32.8264V167.174C247 171.978 244.247 176.357 239.917 178.439L198.716 198.253Z" fill="#1F9CF0"/>
</g>
<g style="mix-blend-mode:overlay" opacity="0.25">
<path fill-rule="evenodd" clip-rule="evenodd" d="M188.703 198.634C191.853 199.861 195.445 199.783 198.624 198.253L239.8 178.439C244.127 176.357 246.879 171.978 246.879 167.174V32.8266C246.879 28.0224 244.127 23.6434 239.801 21.5614L198.624 1.74739C194.451 -0.26038 189.568 0.231398 185.906 2.89376C185.383 3.2741 184.884 3.69874 184.417 4.1667L105.589 76.0828L71.2533 50.0192C68.0571 47.5928 63.5862 47.7918 60.6176 50.492L49.605 60.5096C45.9738 63.8128 45.9696 69.5254 49.596 72.8338L79.3731 100L49.596 127.166C45.9696 130.475 45.9738 136.187 49.605 139.49L60.6176 149.508C63.5862 152.208 68.0571 152.407 71.2533 149.981L105.589 123.917L184.417 195.833C185.664 197.081 187.128 198.021 188.703 198.634ZM196.909 54.5978L137.097 100L196.909 145.402V54.5978Z" fill="url(#paint0_linear_146_590)"/>
</g>
</g>
</g>
<defs>
<filter id="filter0_d_146_590" x="38.5456" y="39.9915" width="216.788" height="167.825" filterUnits="userSpaceOnUse" color-interpolation-filters="sRGB">
<feFlood flood-opacity="0" result="BackgroundImageFix"/>
<feColorMatrix in="SourceAlpha" type="matrix" values="0 0 0 0 0 0 0 0 0 0 0 0 0 0 0 0 0 0 127 0" result="hardAlpha"/>
<feOffset/>
<feGaussianBlur stdDeviation="4.16667"/>
<feColorMatrix type="matrix" values="0 0 0 0 0 0 0 0 0 0 0 0 0 0 0 0 0 0 0.25 0"/>
<feBlend mode="overlay" in2="BackgroundImageFix" result="effect1_dropShadow_146_590"/>
<feBlend mode="normal" in="SourceGraphic" in2="effect1_dropShadow_146_590" result="shape"/>
</filter>
<filter id="filter1_d_146_590" x="176.167" y="-7.81784" width="79.1667" height="215.636" filterUnits="userSpaceOnUse" color-interpolation-filters="sRGB">
<feFlood flood-opacity="0" result="BackgroundImageFix"/>
<feColorMatrix in="SourceAlpha" type="matrix" values="0 0 0 0 0 0 0 0 0 0 0 0 0 0 0 0 0 0 127 0" result="hardAlpha"/>
<feOffset/>
<feGaussianBlur stdDeviation="4.16667"/>
<feColorMatrix type="matrix" values="0 0 0 0 0 0 0 0 0 0 0 0 0 0 0 0 0 0 0.25 0"/>
<feBlend mode="overlay" in2="BackgroundImageFix" result="effect1_dropShadow_146_590"/>
<feBlend mode="normal" in="SourceGraphic" in2="effect1_dropShadow_146_590" result="shape"/>
</filter>
<linearGradient id="paint0_linear_146_590" x1="146.879" y1="0.515624" x2="146.879" y2="199.485" gradientUnits="userSpaceOnUse">
<stop stop-color="white"/>
<stop offset="1" stop-color="white" stop-opacity="0"/>
</linearGradient>
<clipPath id="clip0_146_590">
<rect width="200" height="200" fill="white" transform="translate(47)"/>
</clipPath>
</defs>
</svg>
