<svg width="112" height="61" viewBox="0 0 112 61" fill="none" xmlns="http://www.w3.org/2000/svg">
<path id="Combined Shape" fill-rule="evenodd" clip-rule="evenodd" d="M17.9832 19.0119C12.1781 13.3664 6.86063 7.23749 2.0889 0.692295L2.08964 0.691756C1.58602 0.0204345 0.346755 0.617103 0.757956 1.40714C5.23293 9.68785 11.1176 17.1283 18.143 23.3885C30.4594 34.6331 45.1166 42.9735 61.0255 47.7898C69.0081 50.2393 77.2354 51.7662 85.5463 52.3406C90.0118 52.6067 94.4831 52.5998 98.9355 52.3214L99.0167 52.2841C100.992 51.3814 102.969 50.4851 104.951 49.5996C105.874 50.278 107.183 49.5855 107.173 48.6124C107.971 48.2601 108.77 47.9097 109.571 47.5617L110.387 50.9973C106.594 51.6398 102.772 52.0814 98.9355 52.3214L94.0533 54.5595C94.3685 54.5307 94.6844 54.6693 94.8781 54.9357C95.1149 55.2618 95.1131 55.7027 94.8736 56.0221C93.9936 57.0729 93.0358 58.0007 92.0667 58.9395C91.7403 59.2557 91.4126 59.5731 91.0862 59.8969L88.5437 57.2319C87.9234 57.7186 87.6673 58.5711 87.9622 59.3501C88.3175 60.2886 89.3457 60.7851 90.291 60.4747C92.1088 59.8244 93.873 59.0349 95.5682 58.1133L100.596 55.7729C104.025 54.1814 107.438 52.5554 110.835 50.8949C111.651 50.5698 112.106 49.6981 111.912 48.8347C111.712 47.9667 110.901 47.3771 110.02 47.459C109.013 47.656 108.004 47.8362 106.992 47.9993C106.959 47.9437 106.922 47.888 106.88 47.8322C105.311 45.744 103.526 43.8274 101.554 42.1143C100.521 41.2373 99.429 40.432 98.2859 39.704C97.4004 38.9672 96.3207 38.5027 95.1772 38.3667C94.8242 38.4029 94.5079 38.6006 94.3207 38.9021C94.1336 39.2037 94.0967 39.575 94.2208 39.9077C94.837 40.8323 95.6603 41.6005 96.6253 42.151C97.5097 42.8173 98.3644 43.5246 99.2202 44.2327C99.2914 44.2916 99.3626 44.3506 99.4339 44.4095C100.973 45.6751 102.441 47.0251 103.829 48.4531C96.8926 49.3258 89.8651 49.4065 82.8816 48.6893C66.7772 47.1158 51.1874 41.9779 37.2377 33.6465C30.302 29.4994 23.8435 24.5906 17.9832 19.0119ZM91.8904 55.4807C92.5056 55.2018 93.1286 54.9397 93.7587 54.6946L94.0533 54.5595C93.9829 54.566 93.9125 54.5808 93.8435 54.6043C93.1723 54.8708 92.5264 55.1679 91.8904 55.4807ZM91.8904 55.4807C90.7413 56.0016 89.6193 56.5808 88.5289 57.2164L88.5437 57.2319C88.6707 57.1322 88.8129 57.0479 88.9689 56.9827C89.3671 56.7802 89.7602 56.575 90.1518 56.3706C90.7307 56.0684 91.3063 55.7679 91.8904 55.4807Z" fill="#8082A5"/>
</svg>
