<svg width="276" height="145" viewBox="0 0 276 145" fill="none" xmlns="http://www.w3.org/2000/svg">
<path d="M0.9729 12.8243C0.9729 8.51041 0.9729 6.35345 1.81244 4.70575C2.55093 3.25639 3.72929 2.07803 5.17865 1.33954C6.82635 0.5 8.98331 0.5 13.2972 0.5H263.378C267.692 0.5 269.849 0.5 271.497 1.33954C272.946 2.07803 274.125 3.25639 274.863 4.70575C275.703 6.35345 275.703 8.51041 275.703 12.8243V132.065C275.703 136.378 275.703 138.535 274.863 140.183C274.125 141.632 272.946 142.811 271.497 143.549C269.849 144.389 267.692 144.389 263.378 144.389H13.2972C8.98331 144.389 6.82635 144.389 5.17865 143.549C3.72929 142.811 2.55093 141.632 1.81244 140.183C0.9729 138.535 0.9729 136.378 0.9729 132.065V12.8243Z" fill="white"/>
<path d="M80.5674 52.5312C80.5674 68.4957 67.6351 81.4375 51.6823 81.4375C35.7294 81.4375 22.7971 68.4957 22.7971 52.5312C22.7971 36.5668 35.7294 23.625 51.6823 23.625C67.6351 23.625 80.5674 36.5668 80.5674 52.5312Z" fill="#EF6D58"/>
<path d="M107.527 39.2956C107.527 37.8576 107.527 37.1386 107.807 36.5894C108.053 36.1063 108.446 35.7135 108.929 35.4673C109.478 35.1875 110.197 35.1875 111.635 35.1875H183.013C184.451 35.1875 185.17 35.1875 185.72 35.4673C186.203 35.7135 186.595 36.1063 186.842 36.5894C187.121 37.1386 187.121 37.8576 187.121 39.2956V49.0655C187.121 50.5035 187.121 51.2225 186.842 51.7717C186.595 52.2548 186.203 52.6476 185.72 52.8938C185.17 53.1736 184.451 53.1736 183.013 53.1736H111.635C110.197 53.1736 109.478 53.1736 108.929 52.8938C108.446 52.6476 108.053 52.2548 107.807 51.7717C107.527 51.2225 107.527 50.5035 107.527 49.0655V39.2956Z" fill="#DFE0E9"/>
<path d="M107.527 87.8583C107.527 85.7312 109.251 84.0069 111.378 84.0069C113.505 84.0069 115.23 85.7313 115.23 87.8583V117.413C115.23 119.54 113.505 121.264 111.378 121.264C109.251 121.264 107.527 119.54 107.527 117.413V87.8583Z" fill="#DFE0E9"/>
<path d="M129.351 81.4347C129.351 79.3077 131.076 77.5833 133.203 77.5833C135.33 77.5833 137.054 79.3077 137.054 81.4347V117.413C137.054 119.54 135.33 121.264 133.203 121.264C131.076 121.264 129.351 119.54 129.351 117.413V81.4347Z" fill="#DFE0E9"/>
<path d="M152.459 76.2958C152.459 74.1687 154.184 72.4444 156.311 72.4444C158.438 72.4444 160.162 74.1688 160.162 76.2958V117.413C160.162 119.54 158.438 121.264 156.311 121.264C154.184 121.264 152.459 119.54 152.459 117.413V76.2958Z" fill="#DFE0E9"/>
<path d="M174.284 85.2888C174.284 83.1618 176.008 81.4375 178.135 81.4375C180.262 81.4375 181.986 83.1618 181.986 85.2889V117.413C181.986 119.54 180.262 121.264 178.135 121.264C176.008 121.264 174.284 119.54 174.284 117.413V85.2888Z" fill="#DFE0E9"/>
<path d="M196.108 92.9972C196.108 90.8702 197.832 89.1458 199.959 89.1458C202.086 89.1458 203.811 90.8702 203.811 92.9972V117.413C203.811 119.54 202.086 121.264 199.959 121.264C197.832 121.264 196.108 119.54 196.108 117.413V92.9972Z" fill="#DFE0E9"/>
<path d="M219.216 87.8583C219.216 85.7312 220.94 84.0069 223.067 84.0069C225.194 84.0069 226.919 85.7313 226.919 87.8583V117.413C226.919 119.54 225.194 121.264 223.067 121.264C220.94 121.264 219.216 119.54 219.216 117.413V87.8583Z" fill="#DFE0E9"/>
<path d="M241.041 98.1361C241.041 96.009 242.765 94.2847 244.892 94.2847C247.019 94.2847 248.743 96.009 248.743 98.1361V117.413C248.743 119.54 247.019 121.264 244.892 121.264C242.765 121.264 241.041 119.54 241.041 117.413V98.1361Z" fill="#DFE0E9"/>
</svg>
