<svg width="119" height="151" viewBox="0 0 119 151" fill="none" xmlns="http://www.w3.org/2000/svg">
<path id="Combined Shape" fill-rule="evenodd" clip-rule="evenodd" d="M87.7107 135.273C97.6774 128.849 107.644 122.424 117.683 116.113C118.573 115.55 119.271 116.99 118.419 117.558L118.229 117.685C114.596 120.103 110.968 122.518 107.314 124.903C94.2416 133.421 81.1702 141.942 68.0997 150.464C67.7079 150.653 67.2411 150.593 66.9105 150.31C66.58 150.028 66.4484 149.576 66.5755 149.16C67.5366 147.079 68.4839 144.991 69.4313 142.904C70.4988 140.551 71.5664 138.199 72.6537 135.856C79.4917 121.132 86.3288 106.409 93.165 91.6862C94.1899 91.2467 95.2162 90.8102 96.2441 90.3769L94.4741 88.867C94.0377 89.8067 93.6014 90.7465 93.165 91.6862C90.6781 92.7529 88.1999 93.838 85.7306 94.9416C73.4583 100.434 61.4272 106.395 49.6371 112.825C49.0922 113.083 48.4427 112.954 48.0382 112.508C47.6337 112.061 47.5698 111.402 47.8809 110.886L54.2107 99.3618C61.0943 86.9159 67.9779 74.4721 74.8614 62.0302C75.9462 61.6734 77.0327 61.3223 78.121 60.9766L76.6396 58.8161C76.0469 59.8875 75.4542 60.9588 74.8614 62.0302C72.5756 62.7819 70.2974 63.5583 68.027 64.3593C56.3056 68.5086 44.8074 73.2637 33.579 78.6054C32.9826 78.8892 32.2709 78.7487 31.8277 78.2597C31.3844 77.7707 31.3145 77.0488 31.6557 76.4835C37.8322 66.2474 44.0072 56.0103 50.1807 45.772C51.5884 45.253 52.9894 44.7151 54.3833 44.1583L52.4458 42.0154C51.6908 43.2676 50.9358 44.5198 50.1807 45.772C43.0283 48.4089 35.7028 50.5557 28.2552 52.1969C27.6634 52.3048 27.0635 52.0552 26.7234 51.5594C26.3833 51.0636 26.3664 50.4142 26.6802 49.901C30.6932 44.8991 34.1329 39.4663 36.9365 33.7047C37.6854 33.743 38.4342 33.7814 39.1831 33.82L37.8223 31.8269C37.5345 32.4566 37.2392 33.0825 36.9365 33.7047C33.7981 33.5439 30.6598 33.3848 27.5215 33.2271L24.7283 33.0906C23.9394 33.1357 23.1481 33.0811 22.373 32.9281C21.5537 32.4328 20.8675 31.7457 20.3734 30.9261L18.834 29.0874C16.7224 26.5474 14.6679 23.9606 12.6707 21.3271C10.0881 17.9138 7.59516 14.4407 5.19183 10.9078C5.25074 11.6442 5.30614 12.3803 5.36153 13.1164C5.40418 13.6831 5.44682 14.2498 5.49108 14.8168C5.50675 15.027 5.5206 15.2378 5.53447 15.4488C5.56412 15.9 5.59384 16.3523 5.64155 16.802C5.79415 17.5329 5.71076 18.2868 5.4041 18.9488C5.20554 19.2586 4.85905 19.4329 4.49184 19.408C4.12464 19.383 3.79083 19.1623 3.61299 18.8269C3.26644 18.1392 3.11498 17.3712 3.17634 16.6126L3.05092 14.629C3.02453 14.2089 2.99754 13.7888 2.97054 13.3686C2.90553 12.3566 2.8405 11.3443 2.78378 10.3314L2.59461 7.01319C2.09462 6.24828 1.59873 5.48062 1.10694 4.71024C0.886075 4.26558 0.882868 3.74381 1.09826 3.29622C1.31364 2.84863 1.72352 2.52528 2.20906 2.41994C2.30221 2.39969 2.39545 2.3802 2.48878 2.3615C2.50359 2.16075 2.52128 1.96025 2.54187 1.7601L2.54737 1.76499C2.54306 1.83548 2.54734 1.90793 2.56107 1.98102C2.57326 2.10218 2.57922 2.22322 2.57908 2.34366C2.75039 2.31027 2.92197 2.27946 3.0938 2.25127L2.54737 1.76499C2.56991 1.39601 2.82767 1.08092 3.19669 1.00923C3.6362 0.923851 4.07404 1.21474 4.18468 1.66562C4.2195 1.80934 4.25286 1.95334 4.28477 2.09759C7.50853 1.79368 10.7681 2.3895 13.6928 3.83927C14.4354 4.32343 14.6514 5.31393 14.1779 6.06374C13.6807 6.78978 12.704 7.00349 11.9494 6.55139C9.8392 5.5528 7.52469 5.10231 5.21719 5.22317C5.03226 4.93847 4.8479 4.65338 4.66411 4.36792C4.69773 4.66337 4.72534 4.95937 4.74691 5.25573C4.9036 5.24224 5.06038 5.23138 5.21719 5.22317C10.8223 13.8519 16.9548 22.1272 23.5799 30.0018C23.3641 29.9903 23.1483 29.9788 22.9325 29.9671L23.9651 30.4585C23.8365 30.3065 23.7081 30.1542 23.5799 30.0018C27.8389 30.2288 32.0993 30.4306 36.3608 30.6325C37.361 30.6799 38.3613 30.7273 39.3616 30.775C39.8316 30.8067 40.2609 31.0521 40.5264 31.4409C40.7919 31.8298 40.8641 32.3189 40.7224 32.7681C38.2538 38.2454 35.2281 43.4506 31.6952 48.3022C30.3505 48.6305 29.0015 48.9416 27.6482 49.2353L29.2246 51.534C30.0736 50.4754 30.8973 49.3978 31.6952 48.3022C38.9526 46.5299 46.0797 44.2544 53.0246 41.4917C53.6262 41.209 54.3417 41.3522 54.7877 41.8444C55.2337 42.3367 55.3056 43.0625 54.9648 43.6331C48.87 53.7213 42.7749 63.8106 36.6794 73.9009C35.1913 74.5758 33.7085 75.2619 32.2317 75.9612L34.1521 78.0845C34.9946 76.69 35.837 75.2954 36.6794 73.9009C38.4406 73.1022 40.2092 72.3191 41.984 71.5484C53.606 66.497 65.4768 62.0385 77.5504 58.1902C78.1064 58.0945 78.667 58.3313 78.9858 58.7963C79.3045 59.2614 79.323 59.8695 79.0331 60.3534C76.9095 64.1864 74.785 68.0176 72.6595 71.8468C65.9447 83.9958 59.2075 96.1324 52.4479 108.257C51.0975 108.969 49.7504 109.687 48.4066 110.41L50.1657 112.348C50.9267 110.984 51.6874 109.621 52.4479 108.257C54.478 107.186 56.5157 106.129 58.5608 105.085C70.5328 98.9708 82.7132 93.3209 95.1019 88.1352C95.9891 87.7606 97.3791 88.5592 96.8704 89.6423L90.6712 102.909C83.8398 117.46 77.008 132.01 70.1759 146.559C69.1548 147.215 68.1338 147.871 67.1128 148.527L68.6398 149.83C69.1518 148.739 69.6638 147.649 70.1759 146.559C72.8827 144.819 75.5895 143.078 78.2964 141.336C81.4359 139.317 84.5733 137.295 87.7107 135.273Z" fill="#8082A5"/>
</svg>
