<svg width="1440" height="90" viewBox="0 0 1440 90" fill="none" xmlns="http://www.w3.org/2000/svg">
<g clip-path="url(#clip0_156_473)">
<path d="M155.854 26.6507L151.19 32.2579L152.917 25.1546L146.199 27.9377L151.008 22.4562L143.774 21.7778L150.563 19.1736L144.471 15.1891L151.684 16.0589L148.13 9.68106L154.115 13.8256L153.912 6.51551L157.299 12.9854L160.494 6.41766L160.506 13.7306L166.367 9.40991L163.001 15.8907L170.186 14.8068L164.213 18.9707L171.075 21.3719L163.865 22.265L168.832 27.6014L162.036 25.019L163.97 32.068L159.144 26.6018L157.604 33.7485L155.854 26.6507Z" stroke="#8082A5" stroke-width="2"/>
</g>
<g clip-path="url(#clip1_156_473)">
<path fill-rule="evenodd" clip-rule="evenodd" d="M127.447 26.7985C129.989 24.0328 133.525 22.7198 137.043 23.2349C140.469 23.7736 143.512 25.9598 145.372 29.2184C146.434 31.0456 147.081 33.1347 147.257 35.3045L146.787 34.7781C151.14 34.3576 155.52 35.1226 159.551 37.0076C162.936 38.8152 165.327 42.3433 165.967 46.4735C166.3 48.6657 165.884 50.9178 164.801 52.7831L164.488 51.924C169.802 53.4309 174.217 57.5542 176.485 63.1312C177.502 65.9602 177.68 69.0789 176.993 72.0294C176.324 74.7401 174.77 77.0727 172.639 78.5692C170.368 80.2415 167.546 80.6916 164.946 79.797L165.667 79.3404C164.111 84.4826 160.132 88.238 155.334 89.0926C149.922 90.2923 144.307 89.455 139.366 86.7107C136.411 85.1582 133.727 83.0302 131.441 80.4261L131.869 80.6247C128.863 80.8321 125.849 80.4169 122.978 79.3997C120.323 78.5147 117.804 77.1844 115.507 75.4541C113.38 73.8887 111.598 71.8056 110.294 69.3613C109.111 67.0591 108.591 64.4049 108.804 61.7607C108.977 58.8323 110.266 56.1273 112.344 54.3323V55.5356C109.422 53.0448 107.809 49.0851 108.049 44.9872C108.329 41.8357 109.725 38.9401 111.926 36.9445C114.128 34.9489 116.951 34.0188 119.77 34.361L119.329 35.5494C117.345 33.4243 116.803 30.1175 117.985 27.3447C119.226 24.6482 121.949 23.2407 124.592 23.9301C126.049 24.2518 127.347 25.1631 128.239 26.489C128.401 26.8044 128.307 27.2068 128.027 27.3927C127.744 27.5676 127.388 27.4634 127.219 27.156C125.83 25.3369 123.58 24.6645 121.564 25.4661C119.528 26.3535 118.314 28.6979 118.64 31.1119C118.759 32.4415 119.319 33.6732 120.21 34.5646C120.383 34.7659 120.432 35.0619 120.337 35.3193C120.242 35.5766 120.019 35.7468 119.77 35.753C116.502 35.3385 113.269 36.8051 111.185 39.6476C109.198 42.476 108.691 46.2641 109.85 49.6184C110.443 51.5047 111.532 53.1474 112.973 54.3323C113.138 54.4433 113.248 54.6323 113.273 54.8453C113.297 55.0584 113.234 55.2724 113.1 55.4264C109.65 58.8517 108.956 64.5779 111.467 68.9043C112.787 71.281 114.585 73.2804 116.719 74.7441C119.064 76.4124 121.627 77.6638 124.316 78.453C125.77 78.8967 127.258 79.1811 128.761 79.3024C129.489 79.3553 130.221 79.3501 130.951 79.3236C131.308 79.2604 131.671 79.2503 132.031 79.294C132.346 79.4806 132.619 79.7441 132.83 80.0653C134.723 82.1136 136.881 83.8323 139.231 85.165C143.702 87.8272 148.806 88.8631 153.831 88.1275C158.15 87.6814 161.984 84.8562 164.053 80.5967C164.255 80.0777 164.417 79.5407 164.537 78.9913C164.626 78.6445 164.947 78.4414 165.258 78.5343C169.626 79.9023 174.197 77.2601 175.721 72.4864C176.527 69.8326 176.525 66.955 175.713 64.3032C174.909 61.657 173.478 59.3042 171.571 57.4953C169.423 55.4552 166.914 53.9417 164.209 53.0528C164.053 53.0025 163.927 52.8752 163.866 52.7074C163.805 52.5395 163.816 52.3497 163.896 52.1922C165.562 48.9783 165.317 44.957 163.277 42.0244C160.95 38.6829 157.481 36.5769 153.705 36.2132C151.413 35.8626 149.098 35.7342 146.786 35.8291C146.529 35.8232 146.321 35.5919 146.316 35.3045C145.994 31.7648 144.345 28.5434 141.777 26.4394C139.161 24.3584 135.866 23.646 132.744 24.4863C130.929 24.9432 129.236 25.8714 127.803 27.1958C127.703 27.2947 127.552 27.2898 127.457 27.1844C127.363 27.0791 127.358 26.9099 127.447 26.7985Z" fill="#8082A5"/>
</g>
<g clip-path="url(#clip2_156_473)">
<path fill-rule="evenodd" clip-rule="evenodd" d="M580.403 52.5622C579.097 57.0156 576.091 60.7003 572.1 62.737C568.478 64.3651 564.282 63.5997 561.394 60.7843C559.788 59.4141 559.251 57.0859 560.082 55.0953C560.677 54.4786 561.498 54.1625 562.333 54.2284C563.167 54.2944 563.933 54.736 564.435 55.4394C565.69 57.5252 565.709 60.1788 564.482 62.2836C563.571 64.3831 562.299 66.288 560.73 67.9027C557.796 71.2206 553.452 72.7361 549.211 71.9216C545.294 71.0793 542.262 67.8132 541.56 63.6792C541.218 61.4728 542.119 59.2574 543.872 57.9903C545.362 57.1022 547.255 57.6449 548.109 59.2048C548.418 60.421 548.281 61.715 547.723 62.8295C547.352 63.7884 546.873 64.6974 546.297 65.5372C545.093 67.264 543.559 68.7081 541.793 69.7773C538.286 72.0038 534.135 72.8382 530.092 72.1298C526.311 71.5821 523.006 69.1702 521.198 65.6391C519.913 61.5374 521.71 57.0691 525.406 55.1773C526.293 54.5935 527.257 54.1485 528.266 53.8563C529.097 53.4931 530.051 53.6363 530.752 54.2296C531.165 55.3584 530.891 56.6377 530.055 57.4704C529.471 58.31 528.798 59.0769 528.049 59.7562C524.967 62.5766 520.886 63.8819 516.83 63.3443C512.85 62.7065 509.424 60.0535 507.666 56.2491C505.817 52.6152 505.867 48.2406 507.797 44.6541C509.808 41.2897 513.227 39.1342 516.999 38.8509C517.894 38.7876 518.792 38.8512 519.67 39.0401C520.662 39.1425 521.597 39.5746 522.34 40.2736C522.713 40.9631 522.702 41.8106 522.312 42.4895C521.924 43.3499 521.299 44.0676 520.517 44.5493C517.272 46.2402 513.381 45.758 510.601 43.3198C507.553 40.8669 506.066 36.8299 506.75 32.8614C507.561 28.4515 510.079 24.5932 513.703 22.208C517.115 19.9064 521.271 19.1577 525.22 20.1331C527.126 20.6157 528.866 21.6462 530.246 23.109C531.48 24.3645 532.073 26.1616 531.842 27.9499C531.595 28.7935 530.949 29.4425 530.136 29.6649C529.323 29.8872 528.458 29.6512 527.851 29.0413C526.322 27.4067 525.665 25.082 526.097 22.836C526.558 18.5857 528.756 14.7562 532.12 12.3444C535.266 9.89551 539.357 9.22718 543.062 10.5567C546.421 12.0046 549.051 14.8628 550.314 18.439C550.957 20.1537 551.239 21.9945 551.138 23.8345C551.076 24.7797 550.891 25.7115 550.589 26.6044C550.451 27.583 549.854 28.423 548.999 28.8397C548.106 28.8564 547.314 28.2355 547.076 27.3306C546.81 26.1021 546.886 24.8194 547.294 23.6349C547.853 21.4994 548.764 19.4838 549.988 17.6806C552.289 14.131 555.872 11.7246 559.905 11.021C563.771 10.5029 567.656 11.8243 570.499 14.6248C573.162 17.2885 574.18 21.2949 573.133 24.9977C572.664 26.7862 571.769 28.4198 570.532 29.7444C569.938 30.3725 569.259 30.9053 568.517 31.3256C568.154 31.5303 567.775 31.7023 567.385 31.8397C566.965 32.0816 566.477 32.1577 566.008 32.054C565.64 31.359 565.665 30.5074 566.075 29.8382C566.487 28.8342 567.006 27.8822 567.621 27.0001C568.866 25.2115 570.474 23.737 572.33 22.6841C574.151 21.6293 576.199 21.0837 578.279 21.0998C580.276 21.1556 582.22 21.7925 583.893 22.9398C587.356 25.0953 589.288 29.1889 588.823 33.3885C588.036 37.486 584.934 40.6553 581.013 41.3684C579.027 41.8512 576.959 41.0346 575.768 39.2971C574.629 37.0674 577.959 36.3781 579.371 36.3932C583.351 36.2943 586.819 39.2226 587.583 43.3262C588.346 47.4299 586.182 51.514 582.46 52.9958C580.59 53.9212 578.391 53.7229 576.698 52.4761C576.043 51.9302 575.646 51.1113 575.613 50.2334C575.58 49.3555 575.912 48.5059 576.524 47.9068C577.26 47.5614 578.099 47.5497 578.843 47.8745C579.587 48.1994 580.171 48.8321 580.457 49.6235C581.051 51.9459 580.415 54.4246 578.792 56.12C578.252 56.776 579.159 57.7372 579.703 57.0771C581.784 55.116 582.661 52.1062 581.982 49.2575C581.181 46.9912 578.926 45.6781 576.672 46.1663C575.68 46.5739 574.886 47.3832 574.469 48.412C574.051 49.4408 574.045 50.6028 574.451 51.6366C575.47 54.0298 577.855 55.4458 580.333 55.1281C585.11 54.6217 588.871 50.6228 589.294 45.5999C589.552 40.5529 586.277 36.058 581.571 35.0012C579.311 34.2964 576.867 34.7615 574.986 36.2541C574.08 37.1823 573.829 38.6089 574.359 39.816C574.901 40.9653 575.814 41.8754 576.935 42.384C580.337 43.4373 584.015 42.6425 586.745 40.2641C589.475 37.8857 590.898 34.2359 590.541 30.5295C590.216 28.0714 589.189 25.7744 587.596 23.9415C584.309 20.0396 579.172 18.4845 574.412 19.9509C572.093 20.6941 569.974 22.0039 568.23 23.773C567.316 24.6936 566.51 25.7256 565.829 26.8471C565.16 27.8621 564.657 28.9874 564.342 30.1765C563.988 31.2564 564.231 32.4531 564.974 33.2873C566.098 33.9295 567.465 33.8814 568.546 33.1616C570.467 32.2832 572.095 30.8225 573.222 28.9665C575.682 25.0935 575.891 20.1056 573.763 16.021C571.283 11.888 567.011 9.31729 562.362 9.16028C557.551 9.03879 552.953 11.2409 549.885 15.1353C548.273 17.0991 547.02 19.3583 546.189 21.7997C544.877 24.245 545.036 27.2677 546.595 29.5471C547.491 30.4995 548.844 30.7931 550.026 30.2914C551.098 29.5978 551.871 28.4937 552.181 27.2125C552.905 25.0701 553.076 22.7651 552.679 20.5307C551.9 16.0384 549.292 12.1276 545.538 9.82333C541.481 7.48171 536.547 7.56655 532.564 10.0464C528.364 12.5172 525.458 16.8555 524.663 21.8419C524.131 24.4867 524.654 27.2449 526.109 29.4744C526.825 30.4966 527.909 31.1644 529.108 31.321C530.307 31.4775 531.514 31.109 532.446 30.302C533.833 28.5029 534.023 25.9924 532.922 23.9866C531.87 21.8882 530.161 20.2351 528.084 19.3064C523.634 17.3088 518.565 17.5173 514.277 19.8742C509.828 22.2453 506.599 26.5548 505.451 31.6544C504.921 34.0539 505.042 36.5618 505.802 38.8923C506.563 41.011 507.866 42.8678 509.568 44.258C512.797 47.2425 517.416 47.9017 521.286 45.9306C523.356 44.864 524.477 42.4611 524.011 40.0893C523.484 38.9302 522.478 38.0914 521.283 37.8167C520.212 37.4427 519.091 37.2437 517.962 37.2267C513.489 37.2171 509.308 39.5583 506.822 43.4643C504.436 47.5774 504.332 52.7181 506.551 56.9333C508.661 61.3137 512.745 64.2694 517.394 64.7816C522.148 65.2004 526.825 63.3304 530.111 59.698C531.562 58.0712 533.729 54.8475 531.469 52.9239C529.249 51.8686 526.649 52.2564 524.796 53.919C522.683 55.2009 521.014 57.1582 520.033 59.5056C519.204 61.6443 519.222 64.0423 520.083 66.167C522.16 70.3222 526.081 73.1072 530.526 73.5831C535.24 74.2324 540.013 72.9727 543.875 70.06C545.811 68.6281 547.4 66.7399 548.516 64.5468C550.066 62.4109 550.053 59.4466 548.485 57.3255C546.782 55.8447 544.325 55.8139 542.589 57.2516C540.777 58.9702 539.943 61.5534 540.387 64.0754C541.308 68.8839 544.986 72.5795 549.6 73.333C554.513 73.957 559.389 71.9043 562.532 67.8893C564.342 65.8498 565.674 63.395 566.422 60.7199C567.285 58.2088 566.521 55.3995 564.525 53.7464C563.709 53.0709 562.67 52.7654 561.638 52.8977C560.607 53.03 559.668 53.5891 559.031 54.451C557.989 56.7371 558.445 59.4655 560.166 61.2426C563.314 64.7385 568.195 65.8189 572.419 63.9545C576.807 61.8103 580.068 57.738 581.327 52.8298C581.388 52.565 581.238 52.297 580.988 52.2247C580.738 52.1523 580.478 52.3018 580.402 52.5622H580.403Z" fill="#8082A5"/>
</g>
<g clip-path="url(#clip3_156_473)">
<path d="M447.069 33.8466L439.332 43.1494L442.197 31.3645L431.051 35.982L439.029 26.8876L427.029 25.7621L438.291 21.4415L428.185 14.8308L440.152 16.2739L434.255 5.69247L444.185 12.5687L443.848 0.44054L449.467 11.1746L454.768 0.278198L454.787 12.4111L464.511 5.24261L458.927 15.9948L470.847 14.1965L460.939 21.1048L472.323 25.0887L460.361 26.5704L468.602 35.4239L457.325 31.1395L460.536 42.8344L452.529 33.7656L449.972 45.6225L447.069 33.8466Z" stroke="#8082A5" stroke-width="2"/>
</g>
<g clip-path="url(#clip4_156_473)">
<path fill-rule="evenodd" clip-rule="evenodd" d="M870.564 26.2079C867.61 23.4163 863.501 22.091 859.412 22.611C855.431 23.1546 851.894 25.3613 849.732 28.6503C848.498 30.4946 847.746 32.6032 847.542 34.7933L848.089 34.262C843.029 33.8375 837.939 34.6097 833.254 36.5124C829.32 38.3369 826.541 41.8979 825.798 46.0668C825.41 48.2794 825.894 50.5526 827.153 52.4352L827.517 51.5682C821.34 53.0892 816.211 57.2509 813.574 62.8801C812.393 65.7356 812.186 68.8834 812.983 71.8615C813.762 74.5975 815.567 76.9519 818.044 78.4624C820.684 80.1503 823.963 80.6046 826.984 79.7016L826.147 79.2408C827.955 84.4311 832.579 88.2216 838.155 89.0841C844.445 90.2951 850.971 89.4499 856.713 86.68C860.147 85.1129 863.265 82.965 865.923 80.3366L865.425 80.5371C868.918 80.7464 872.421 80.3273 875.758 79.3007C878.843 78.4074 881.771 77.0647 884.441 75.3181C886.913 73.7382 888.984 71.6356 890.499 69.1684C891.874 66.8447 892.479 64.1657 892.23 61.4968C892.029 58.541 890.532 55.8108 888.116 53.999V55.2135C891.513 52.6995 893.386 48.7027 893.108 44.5665C892.782 41.3856 891.16 38.4629 888.602 36.4487C886.043 34.4344 882.762 33.4956 879.487 33.841L879.998 35.0405C882.305 32.8955 882.934 29.5579 881.561 26.7592C880.119 24.0375 876.953 22.6167 873.882 23.3126C872.189 23.6374 870.68 24.5571 869.644 25.8954C869.455 26.2138 869.565 26.6199 869.89 26.8076C870.219 26.9841 870.632 26.8789 870.83 26.5687C872.444 24.7326 875.059 24.0539 877.402 24.863C879.768 25.7586 881.179 28.125 880.799 30.5616C880.661 31.9036 880.01 33.1468 878.974 34.0465C878.774 34.2497 878.717 34.5485 878.827 34.8082C878.938 35.068 879.197 35.2397 879.486 35.246C883.284 34.8276 887.041 36.308 889.463 39.177C891.772 42.0319 892.362 45.8553 891.015 49.241C890.325 51.1449 889.06 52.8029 887.385 53.999C887.194 54.111 887.065 54.3017 887.037 54.5168C887.009 54.7319 887.082 54.9478 887.238 55.1033C891.247 58.5606 892.054 64.3403 889.136 68.7072C887.601 71.1061 885.511 73.1242 883.032 74.6015C880.307 76.2854 877.328 77.5485 874.203 78.3451C872.514 78.793 870.784 79.08 869.038 79.2024C868.191 79.2558 867.34 79.2505 866.493 79.2239C866.078 79.16 865.655 79.1499 865.237 79.1939C864.871 79.3823 864.553 79.6482 864.308 79.9724C862.108 82.0399 859.601 83.7746 856.87 85.1198C851.673 87.8069 845.741 88.8525 839.902 88.11C834.883 87.6597 830.426 84.8082 828.022 80.5088C827.788 79.9849 827.599 79.4429 827.459 78.8884C827.356 78.5383 826.984 78.3334 826.622 78.4272C821.545 79.8079 816.233 77.1411 814.462 72.3227C813.525 69.6441 813.528 66.7396 814.471 64.063C815.405 61.3921 817.069 59.0173 819.285 57.1916C821.782 55.1323 824.697 53.6047 827.841 52.7075C828.022 52.6568 828.169 52.5282 828.24 52.3588C828.311 52.1895 828.298 51.9978 828.205 51.8388C826.269 48.5949 826.553 44.5361 828.923 41.5761C831.629 38.2033 835.66 36.0776 840.049 35.7105C842.712 35.3567 845.402 35.227 848.089 35.3229C848.388 35.3169 848.629 35.0834 848.636 34.7933C849.009 31.2206 850.926 27.969 853.91 25.8453C856.951 23.7449 860.78 23.0259 864.409 23.874C866.517 24.3352 868.485 25.2721 870.151 26.6088C870.267 26.7087 870.443 26.7037 870.552 26.5973C870.662 26.491 870.667 26.3203 870.564 26.2079Z" fill="#8082A5"/>
</g>
<g clip-path="url(#clip5_156_473)">
<path d="M1043.53 70.1542L1030.5 85.8289L1035.32 65.9721L1016.54 73.7522L1029.99 58.4287L1009.77 56.5323L1028.74 49.2525L1011.71 38.1139L1031.88 40.5455L1021.94 22.7164L1038.67 34.3024L1038.11 13.8673L1047.57 31.9535L1056.5 13.5938L1056.54 34.0368L1072.92 21.9584L1063.51 40.0752L1083.6 37.0452L1066.9 48.6852L1086.08 55.3977L1065.93 57.8944L1079.81 72.8119L1060.81 65.593L1066.22 85.2981L1052.73 70.0177L1048.42 89.9958L1043.53 70.1542Z" stroke="#8082A5" stroke-width="2"/>
</g>
<g clip-path="url(#clip6_156_473)">
<path fill-rule="evenodd" clip-rule="evenodd" d="M1262.79 16.5467C1263.85 13.0688 1266.31 10.1912 1269.57 8.60062C1272.53 7.32919 1275.96 7.92688 1278.33 10.1256C1279.64 11.1957 1280.08 13.0139 1279.4 14.5684C1278.91 15.0501 1278.24 15.2969 1277.56 15.2454C1276.88 15.1939 1276.25 14.8491 1275.84 14.2997C1274.81 12.6708 1274.8 10.5984 1275.8 8.95469C1276.55 7.31513 1277.59 5.8275 1278.87 4.56648C1281.27 1.97534 1284.82 0.791844 1288.29 1.42791C1291.49 2.08566 1293.97 4.63633 1294.54 7.86481C1294.82 9.58794 1294.08 11.3181 1292.65 12.3076C1291.43 13.0011 1289.88 12.5773 1289.19 11.3591C1288.93 10.4093 1289.05 9.39875 1289.5 8.52838C1289.81 7.7795 1290.2 7.06963 1290.67 6.41381C1291.65 5.06526 1292.91 3.93749 1294.35 3.10252C1297.22 1.36373 1300.61 0.712044 1303.92 1.26534C1307.01 1.69299 1309.71 3.57657 1311.19 6.33425C1312.24 9.53744 1310.77 13.027 1307.75 14.5044C1307.02 14.9603 1306.23 15.3078 1305.41 15.536C1304.73 15.8197 1303.95 15.7078 1303.38 15.2445C1303.04 14.363 1303.26 13.3639 1303.95 12.7136C1304.42 12.0579 1304.97 11.459 1305.59 10.9285C1308.11 8.72587 1311.44 7.7065 1314.76 8.12638C1318.01 8.62444 1320.81 10.6963 1322.25 13.6674C1323.76 16.5052 1323.72 19.9216 1322.14 22.7225C1320.5 25.3499 1317.7 27.0333 1314.62 27.2545C1313.89 27.304 1313.15 27.2543 1312.44 27.1068C1311.62 27.0268 1310.86 26.6894 1310.25 26.1434C1309.95 25.605 1309.96 24.9431 1310.28 24.4129C1310.59 23.7411 1311.1 23.1806 1311.74 22.8044C1314.4 21.4838 1317.58 21.8604 1319.85 23.7645C1322.34 25.6801 1323.56 28.8328 1323 31.9321C1322.34 35.376 1320.28 38.3891 1317.31 40.2519C1314.52 42.0493 1311.13 42.634 1307.9 41.8722C1306.34 41.4954 1304.92 40.6906 1303.79 39.5482C1302.78 38.5677 1302.3 37.1642 1302.49 35.7677C1302.69 35.1089 1303.21 34.6021 1303.88 34.4284C1304.54 34.2547 1305.25 34.4391 1305.75 34.9154C1307 36.1919 1307.54 38.0074 1307.18 39.7614C1306.81 43.0807 1305.01 46.0714 1302.26 47.9549C1299.69 49.8673 1296.34 50.3893 1293.31 49.3509C1290.57 48.2203 1288.42 45.9881 1287.38 43.1952C1286.86 41.8562 1286.63 40.4186 1286.71 38.9816C1286.76 38.2435 1286.91 37.5158 1287.16 36.8184C1287.27 36.0543 1287.76 35.3983 1288.46 35.0728C1289.19 35.0598 1289.84 35.5446 1290.03 36.2514C1290.25 37.2108 1290.19 38.2124 1289.85 39.1375C1289.4 40.8052 1288.65 42.3793 1287.65 43.7875C1285.77 46.5596 1282.84 48.4389 1279.54 48.9884C1276.38 49.393 1273.21 48.361 1270.88 46.1739C1268.71 44.0938 1267.87 40.9649 1268.73 38.0732C1269.11 36.6765 1269.84 35.4008 1270.86 34.3663C1271.34 33.8758 1271.9 33.4597 1272.5 33.1314C1272.8 32.9716 1273.11 32.8373 1273.43 32.7299C1273.77 32.541 1274.17 32.4816 1274.55 32.5626C1274.85 33.1054 1274.83 33.7704 1274.5 34.2931C1274.16 35.0771 1273.74 35.8206 1273.23 36.5094C1272.22 37.9063 1270.9 39.0577 1269.39 39.88C1267.9 40.7038 1266.22 41.1299 1264.52 41.1173C1262.89 41.0737 1261.3 40.5763 1259.93 39.6803C1257.1 37.997 1255.52 34.8001 1255.9 31.5204C1256.55 28.3204 1259.08 25.8454 1262.29 25.2885C1263.91 24.9114 1265.6 25.5492 1266.57 26.9061C1267.51 28.6474 1264.78 29.1857 1263.63 29.1739C1260.38 29.2511 1257.54 26.9643 1256.92 23.7595C1256.29 20.5548 1258.06 17.3652 1261.1 16.2081C1262.63 15.4854 1264.43 15.6403 1265.81 16.6139C1266.35 17.0402 1266.67 17.6797 1266.7 18.3654C1266.73 19.0509 1266.46 19.7144 1265.96 20.1823C1265.36 20.4521 1264.67 20.4612 1264.06 20.2075C1263.45 19.9538 1262.98 19.4597 1262.74 18.8416C1262.26 17.0279 1262.78 15.0922 1264.1 13.7682C1264.54 13.2559 1263.8 12.5053 1263.36 13.0208C1261.66 14.5523 1260.94 16.9027 1261.49 19.1275C1262.15 20.8973 1263.99 21.9228 1265.84 21.5416C1266.65 21.2232 1267.3 20.5913 1267.64 19.7878C1267.98 18.9843 1267.98 18.0769 1267.65 17.2695C1266.82 15.4005 1264.87 14.2947 1262.84 14.5428C1258.94 14.9383 1255.86 18.0612 1255.52 21.9839C1255.31 25.9254 1257.98 29.4356 1261.83 30.2609C1263.68 30.8114 1265.68 30.4482 1267.21 29.2825C1267.96 28.5576 1268.16 27.4435 1267.73 26.5009C1267.28 25.6033 1266.54 24.8926 1265.62 24.4953C1262.84 23.6728 1259.83 24.2934 1257.6 26.1509C1255.37 28.0083 1254.21 30.8586 1254.5 33.7531C1254.76 35.6728 1255.6 37.4666 1256.91 38.8981C1259.59 41.9453 1263.79 43.1597 1267.68 42.0145C1269.58 41.4341 1271.31 40.4112 1272.74 39.0297C1273.48 38.3107 1274.14 37.5048 1274.7 36.6289C1275.25 35.8363 1275.66 34.9574 1275.92 34.0288C1276.21 33.1855 1276.01 32.2509 1275.4 31.5994C1274.48 31.0979 1273.36 31.1355 1272.48 31.6976C1270.91 32.3836 1269.58 33.5243 1268.66 34.9738C1266.65 37.9984 1266.47 41.8937 1268.21 45.0836C1270.24 48.3113 1273.73 50.3189 1277.53 50.4415C1281.47 50.5364 1285.23 48.8166 1287.73 45.7753C1289.05 44.2417 1290.08 42.4773 1290.76 40.5707C1291.83 38.6611 1291.7 36.3005 1290.42 34.5204C1289.69 33.7766 1288.59 33.5473 1287.62 33.9391C1286.74 34.4808 1286.11 35.343 1285.86 36.3436C1285.27 38.0167 1285.13 39.8168 1285.45 41.5618C1286.09 45.07 1288.22 48.1242 1291.29 49.9237C1294.61 51.7524 1298.64 51.6861 1301.89 49.7495C1305.33 47.8199 1307.7 44.4319 1308.35 40.5377C1308.79 38.4723 1308.36 36.3182 1307.17 34.5771C1306.59 33.7789 1305.7 33.2573 1304.72 33.1351C1303.74 33.0128 1302.75 33.3006 1301.99 33.9308C1300.86 35.3358 1300.7 37.2964 1301.6 38.8628C1302.46 40.5016 1303.86 41.7926 1305.56 42.5179C1309.2 44.0779 1313.34 43.9151 1316.84 42.0744C1320.48 40.2227 1323.12 36.8572 1324.06 32.8747C1324.49 31.0007 1324.39 29.0422 1323.77 27.2222C1323.15 25.5676 1322.09 24.1175 1320.69 23.0318C1318.05 20.7011 1314.28 20.1863 1311.11 21.7256C1309.42 22.5586 1308.51 24.4351 1308.89 26.2874C1309.32 27.1926 1310.14 27.8477 1311.12 28.0622C1311.99 28.3543 1312.91 28.5097 1313.83 28.5229C1317.49 28.5304 1320.91 26.7021 1322.94 23.6517C1324.89 20.4396 1324.98 16.4249 1323.16 13.1331C1321.44 9.71212 1318.1 7.40387 1314.3 7.00387C1310.41 6.67681 1306.59 8.13719 1303.9 10.9739C1302.71 12.2444 1300.94 14.7619 1302.79 16.2642C1304.6 17.0883 1306.73 16.7855 1308.25 15.4871C1309.97 14.486 1311.34 12.9574 1312.14 11.1242C1312.82 9.45394 1312.8 7.58125 1312.1 5.92194C1310.4 2.67691 1307.19 0.502001 1303.56 0.130347C1299.71 -0.376706 1295.81 0.607016 1292.65 2.88171C1291.07 3.99999 1289.77 5.47453 1288.85 7.18725C1287.59 8.85531 1287.6 11.1703 1288.88 12.8268C1290.27 13.9832 1292.28 14.0072 1293.7 12.8845C1295.18 11.5423 1295.86 9.52494 1295.5 7.55544C1294.75 3.80016 1291.74 0.914087 1287.97 0.325696C1283.95 -0.161678 1279.96 1.4414 1277.4 4.57696C1275.92 6.16965 1274.83 8.08675 1274.22 10.1759C1273.51 12.1369 1274.13 14.3309 1275.77 15.6219C1276.43 16.1494 1277.28 16.3879 1278.13 16.2846C1278.97 16.1813 1279.74 15.7447 1280.26 15.0716C1281.11 13.2863 1280.74 11.1555 1279.33 9.76769C1276.76 7.03756 1272.77 6.19383 1269.31 7.64981C1265.73 9.32431 1263.06 12.5046 1262.03 16.3377C1261.98 16.5444 1262.1 16.7538 1262.31 16.8103C1262.51 16.8668 1262.72 16.75 1262.79 16.5467H1262.79Z" fill="#8082A5"/>
</g>
<defs>
<clipPath id="clip0_156_473">
<rect width="27.5045" height="27.5" fill="white" transform="translate(143.648 6.25)"/>
</clipPath>
<clipPath id="clip1_156_473">
<rect width="69.3862" height="66.875" fill="white" transform="matrix(-1 0 0 1 177.404 23.125)"/>
</clipPath>
<clipPath id="clip2_156_473">
<rect width="85.6389" height="65.625" fill="white" transform="matrix(-1 0 0 -1 590.596 73.75)"/>
</clipPath>
<clipPath id="clip3_156_473">
<rect width="45.6324" height="45.625" fill="white" transform="translate(426.819)"/>
</clipPath>
<clipPath id="clip4_156_473">
<rect width="80.6381" height="67.5" fill="white" transform="translate(812.506 22.5)"/>
</clipPath>
<clipPath id="clip5_156_473">
<rect width="76.8875" height="76.875" fill="white" transform="translate(1009.41 13.125)"/>
</clipPath>
<clipPath id="clip6_156_473">
<rect width="70.0114" height="51.25" fill="white" transform="translate(1254.45)"/>
</clipPath>
</defs>
</svg>
