<svg width="375" height="50" viewBox="0 0 375 50" fill="none" xmlns="http://www.w3.org/2000/svg">
<g clip-path="url(#clip0_156_491)">
<path d="M74.2065 22.0624L70.3066 26.7521L71.751 20.8112L66.1332 23.1389L70.1544 18.5543L64.1056 17.9869L69.7823 15.8089L64.6883 12.4764L70.7201 13.2039L67.7478 7.86964L72.7529 11.336L72.5833 5.2221L75.4151 10.6333L78.0869 5.14026L78.0967 11.2566L82.998 7.64287L80.1835 13.0632L86.1913 12.1566L81.1972 15.6392L86.9354 17.6475L80.9059 18.3944L85.0598 22.8576L79.3761 20.6977L80.994 26.5933L76.9584 22.0216L75.6698 27.9988L74.2065 22.0624Z" stroke="#8082A5"/>
</g>
<g clip-path="url(#clip1_156_491)">
<path fill-rule="evenodd" clip-rule="evenodd" d="M34.6196 2.19725C36.1398 0.542994 38.2542 -0.242362 40.3582 0.065759C42.4069 0.38793 44.2269 1.69556 45.3394 3.64465C45.9745 4.73753 46.3614 5.98709 46.4665 7.28491L46.1852 6.97008C48.7888 6.71854 51.4081 7.17612 53.8187 8.30362C55.8431 9.38481 57.2732 11.495 57.6557 13.9655C57.8552 15.2767 57.6063 16.6237 56.9583 17.7394L56.771 17.2256C59.9495 18.1269 62.5893 20.5931 63.9461 23.929C64.5539 25.6211 64.6604 27.4865 64.2499 29.2513C63.8494 30.8726 62.9205 32.2678 61.646 33.1629C60.2875 34.1631 58.6001 34.4323 57.0452 33.8972L57.4763 33.6242C56.5459 36.6999 54.1665 38.9461 51.2971 39.4572C48.0604 40.1748 44.7021 39.674 41.7473 38.0326C39.9802 37.104 38.3754 35.8311 37.0078 34.2735L37.2641 34.3923C35.4664 34.5164 33.6639 34.268 31.9471 33.6596C30.3593 33.1303 28.8526 32.3346 27.4787 31.2996C26.2068 30.3634 25.141 29.1174 24.3616 27.6553C23.6538 26.2783 23.3427 24.6908 23.4706 23.1092C23.5738 21.3576 24.3446 19.7397 25.5875 18.6661V19.3858C23.8398 17.896 22.8755 15.5275 23.0187 13.0765C23.1864 11.1914 24.0213 9.4595 25.3377 8.26587C26.6542 7.07224 28.3428 6.5159 30.0282 6.7206L29.7648 7.43142C28.578 6.16031 28.254 4.18244 28.9607 2.52395C29.7029 0.911099 31.3317 0.0691741 32.9122 0.481564C33.7832 0.674002 34.5598 1.21905 35.0932 2.01212C35.1902 2.20075 35.1338 2.44144 34.9666 2.55267C34.7974 2.65725 34.5845 2.59492 34.483 2.41109C33.6523 1.323 32.3068 0.92085 31.1011 1.40029C29.8835 1.93105 29.1574 3.33332 29.3527 4.77722C29.4238 5.5725 29.7588 6.30922 30.2918 6.84237C30.3948 6.96278 30.4244 7.13983 30.3675 7.29377C30.3105 7.44771 30.1774 7.54946 30.0284 7.5532C28.074 7.30525 26.1407 8.18249 24.8944 9.88268C23.7063 11.5744 23.4029 13.8402 24.0956 15.8465C24.4508 16.9748 25.1016 17.9573 25.9638 18.6661C26.0623 18.7325 26.1283 18.8455 26.1429 18.9729C26.1575 19.1004 26.1195 19.2283 26.0393 19.3205C23.9763 21.3692 23.5614 24.7943 25.0629 27.382C25.8524 28.8036 26.9279 29.9995 28.2037 30.875C29.6061 31.8728 31.1389 32.6213 32.7471 33.0934C33.6164 33.3588 34.5065 33.5289 35.4052 33.6014C35.841 33.6331 36.2785 33.6299 36.7147 33.6141C36.9282 33.5763 37.1456 33.5703 37.3606 33.5964C37.5492 33.708 37.7128 33.8656 37.839 34.0577C38.971 35.2829 40.2612 36.3109 41.6664 37.108C44.3407 38.7004 47.3932 39.32 50.3978 38.88C52.9807 38.6132 55.274 36.9234 56.5111 34.3756C56.6319 34.0652 56.7288 33.744 56.8007 33.4153C56.8537 33.2079 57.0455 33.0865 57.2318 33.142C59.8441 33.9602 62.5776 32.3799 63.4888 29.5246C63.9712 27.9372 63.9696 26.216 63.4844 24.6299C63.0035 23.0472 62.1474 21.6399 61.0073 20.558C59.7223 19.3377 58.2224 18.4324 56.6046 17.9008C56.5114 17.8707 56.4357 17.7945 56.3992 17.6941C56.3627 17.5937 56.3693 17.4802 56.4173 17.386C57.4134 15.4636 57.2671 13.0584 56.0474 11.3043C54.6553 9.30568 52.5806 8.04599 50.3225 7.82843C48.9518 7.61878 47.5675 7.54194 46.185 7.59873C46.0311 7.59519 45.9071 7.45684 45.9036 7.28491C45.7114 5.16776 44.7251 3.24089 43.1893 1.98242C41.6247 0.737744 39.6542 0.311636 37.7872 0.814206C36.7021 1.0875 35.6896 1.64273 34.8324 2.43485C34.7726 2.49404 34.6821 2.49107 34.6258 2.42805C34.5695 2.36505 34.5665 2.26385 34.6196 2.19725Z" fill="#8082A5"/>
</g>
<path fill-rule="evenodd" clip-rule="evenodd" d="M188.473 33.8569C187.479 37.25 185.188 40.0574 182.149 41.6091C179.389 42.8496 176.193 42.2665 173.993 40.1213C172.769 39.0774 172.36 37.3035 172.993 35.7869C173.447 35.317 174.072 35.0762 174.708 35.1264C175.343 35.1767 175.927 35.5131 176.309 36.0491C177.266 37.6382 177.28 39.6601 176.345 41.2637C175.651 42.8633 174.682 44.3146 173.487 45.5449C171.252 48.0728 167.943 49.2275 164.712 48.6069C161.728 47.9652 159.418 45.4768 158.883 42.327C158.623 40.6459 159.309 38.958 160.645 37.9926C161.78 37.316 163.222 37.7295 163.872 38.9179C164.108 39.8446 164.003 40.8305 163.579 41.6796C163.296 42.4102 162.931 43.1028 162.492 43.7426C161.575 45.0583 160.406 46.1585 159.062 46.9731C156.389 48.6695 153.227 49.3053 150.148 48.7655C147.267 48.3483 144.749 46.5107 143.373 43.8202C142.393 40.6952 143.762 37.2907 146.578 35.8494C147.254 35.4046 147.988 35.0655 148.757 34.8429C149.39 34.5662 150.116 34.6753 150.65 35.1273C150.965 35.9873 150.756 36.9621 150.12 37.5965C149.675 38.2362 149.162 38.8205 148.591 39.338C146.244 41.487 143.135 42.4815 140.045 42.0718C137.013 41.5859 134.403 39.5646 133.064 36.666C131.655 33.8973 131.693 30.5643 133.164 27.8317C134.696 25.2684 137.3 23.626 140.174 23.4102C140.855 23.362 141.539 23.4104 142.208 23.5544C142.964 23.6324 143.677 23.9616 144.242 24.4942C144.526 25.0195 144.518 25.6652 144.221 26.1825C143.925 26.838 143.449 27.3848 142.854 27.7518C140.381 29.0402 137.418 28.6727 135.299 26.8151C132.978 24.9462 131.845 21.8704 132.366 18.8468C132.984 15.4868 134.902 12.5472 137.662 10.7299C140.262 8.97628 143.428 8.40585 146.436 9.14902C147.888 9.51671 149.214 10.3018 150.265 11.4164C151.205 12.373 151.656 13.7422 151.481 15.1047C151.292 15.7474 150.801 16.2419 150.181 16.4113C149.562 16.5807 148.903 16.4009 148.44 15.9362C147.276 14.6908 146.775 12.9196 147.104 11.2084C147.455 7.97006 149.13 5.05232 151.693 3.21476C154.089 1.34896 157.205 0.839754 160.028 1.85274C162.587 2.95585 164.59 5.13354 165.552 7.85829C166.042 9.1647 166.257 10.5673 166.18 11.9691C166.132 12.6893 165.992 13.3992 165.762 14.0796C165.657 14.8251 165.202 15.4651 164.551 15.7826C163.87 15.7954 163.267 15.3223 163.086 14.6328C162.883 13.6968 162.941 12.7196 163.252 11.8171C163.677 10.19 164.372 8.65433 165.304 7.28049C167.057 4.57604 169.786 2.74256 172.859 2.20646C175.804 1.81171 178.763 2.81853 180.929 4.95225C182.958 6.9817 183.733 10.0342 182.935 12.8554C182.578 14.218 181.896 15.4627 180.954 16.472C180.502 16.9505 179.984 17.3564 179.419 17.6766C179.143 17.8326 178.854 17.9637 178.556 18.0684C178.237 18.2527 177.865 18.3106 177.508 18.2316C177.227 17.7021 177.247 17.0533 177.559 16.5434C177.873 15.7785 178.268 15.0531 178.737 14.381C179.685 13.0183 180.91 11.8949 182.324 11.0927C183.711 10.289 185.271 9.87329 186.855 9.88555C188.377 9.92805 189.858 10.4134 191.132 11.2875C193.77 12.9298 195.242 16.0487 194.888 19.2484C194.288 22.3703 191.925 24.785 188.938 25.3283C187.425 25.6962 185.85 25.074 184.943 23.7502C184.075 22.0513 186.612 21.5262 187.687 21.5377C190.719 21.4623 193.361 23.6934 193.943 26.82C194.524 29.9466 192.876 33.0583 190.04 34.1873C188.616 34.8923 186.941 34.7412 185.651 33.7913C185.152 33.3754 184.85 32.7515 184.825 32.0826C184.799 31.4137 185.053 30.7664 185.519 30.3099C186.079 30.0468 186.718 30.0379 187.285 30.2854C187.852 30.5329 188.297 31.0149 188.515 31.6179C188.967 33.3874 188.483 35.2759 187.246 36.5676C186.835 37.0674 187.526 37.7998 187.94 37.2968C189.526 35.8027 190.194 33.5095 189.676 31.339C189.067 29.6124 187.348 28.6119 185.631 28.9838C184.876 29.2944 184.271 29.911 183.953 30.6949C183.635 31.4787 183.63 32.364 183.939 33.1517C184.716 34.9751 186.533 36.054 188.42 35.8119C192.059 35.426 194.924 32.3793 195.246 28.5523C195.443 24.707 192.948 21.2823 189.363 20.4771C187.642 19.9401 185.78 20.2944 184.347 21.4317C183.657 22.1389 183.465 23.2259 183.869 24.1455C184.282 25.0212 184.978 25.7146 185.832 26.1021C188.423 26.9046 191.225 26.2991 193.305 24.487C195.385 22.6748 196.469 19.894 196.197 17.0701C195.949 15.1973 195.167 13.4472 193.953 12.0507C191.449 9.0778 187.535 7.89299 183.91 9.01024C182.143 9.57646 180.529 10.5744 179.201 11.9223C178.504 12.6237 177.89 13.41 177.372 14.2645C176.862 15.0378 176.479 15.8952 176.238 16.8012C175.969 17.6239 176.154 18.5357 176.72 19.1713C177.576 19.6605 178.618 19.6239 179.441 19.0755C180.905 18.4063 182.145 17.2934 183.003 15.8792C184.877 12.9284 185.036 9.12811 183.415 6.01604C181.526 2.86701 178.272 0.908415 174.73 0.788781C171.065 0.69622 167.562 2.37402 165.226 5.34122C163.998 6.83738 163.043 8.55872 162.41 10.4188C161.411 12.2819 161.531 14.5849 162.719 16.3216C163.402 17.0473 164.433 17.2709 165.333 16.8887C166.15 16.3602 166.738 15.519 166.975 14.5429C167.526 12.9105 167.657 11.1544 167.354 9.45195C166.76 6.02927 164.773 3.04957 161.914 1.29396C158.823 -0.490123 155.065 -0.425487 152.031 1.4639C148.831 3.3464 146.618 6.65183 146.012 10.451C145.607 12.466 146.005 14.5676 147.113 16.2662C147.659 17.045 148.485 17.5538 149.398 17.6731C150.311 17.7924 151.231 17.5116 151.941 16.8968C152.998 15.526 153.142 13.6132 152.303 12.0851C151.502 10.4863 150.2 9.22677 148.618 8.51914C145.228 6.99719 141.366 7.15604 138.1 8.95177C134.711 10.7584 132.251 14.0418 131.377 17.9271C130.973 19.7554 131.065 21.6662 131.644 23.4418C132.224 25.056 133.216 26.4707 134.513 27.5299C136.973 29.8038 140.491 30.306 143.439 28.8043C145.017 27.9916 145.87 26.1609 145.515 24.3538C145.114 23.4706 144.347 22.8315 143.437 22.6223C142.621 22.3373 141.768 22.1857 140.907 22.1727C137.499 22.1654 134.314 23.9491 132.421 26.9252C130.603 30.059 130.524 33.9757 132.214 37.1873C133.822 40.5248 136.933 42.7767 140.474 43.167C144.096 43.486 147.659 42.0613 150.162 39.2937C151.267 38.0543 152.918 35.5981 151.196 34.1325C149.505 33.3285 147.524 33.6239 146.113 34.8907C144.503 35.8673 143.232 37.3586 142.485 39.1471C141.853 40.7766 141.867 42.6037 142.523 44.2225C144.105 47.3884 147.092 49.5102 150.478 49.8728C154.07 50.3675 157.705 49.4078 160.647 47.1886C162.122 46.0976 163.333 44.659 164.183 42.988C165.364 41.3607 165.354 39.1022 164.159 37.4861C162.862 36.3579 160.99 36.3344 159.668 37.4298C158.287 38.7392 157.652 40.7074 157.99 42.6288C158.691 46.2925 161.493 49.1082 165.009 49.6822C168.751 50.1577 172.466 48.5938 174.86 45.5347C176.239 43.9808 177.253 42.1105 177.823 40.0723C178.481 38.1591 177.899 36.0187 176.378 34.7591C175.756 34.2445 174.965 34.0118 174.179 34.1126C173.393 34.2134 172.678 34.6393 172.192 35.296C171.399 37.0378 171.746 39.1166 173.057 40.4705C175.455 43.1341 179.174 43.9572 182.391 42.5368C185.734 40.9031 188.218 37.8004 189.177 34.0608C189.224 33.8591 189.11 33.6549 188.919 33.5998C188.729 33.5446 188.531 33.6585 188.473 33.8569H188.473Z" fill="#8082A5"/>
<path d="M235.371 36.7511L229.436 43.8875L231.634 34.8471L223.086 38.3892L229.205 31.4127L220 30.5493L228.639 27.2349L220.887 22.1636L230.066 23.2707L225.543 15.1534L233.159 20.4283L232.901 11.1245L237.21 19.3589L241.276 11L241.291 20.3074L248.749 14.8083L244.466 23.0566L253.609 21.6771L246.009 26.9766L254.741 30.0327L245.566 31.1694L251.887 37.9611L243.238 34.6744L245.7 43.6459L239.559 36.689L237.598 45.7847L235.371 36.7511Z" stroke="#8082A5"/>
<g clip-path="url(#clip2_156_491)">
<path fill-rule="evenodd" clip-rule="evenodd" d="M338.119 9.30711C336.281 7.57014 333.725 6.74552 331.181 7.06905C328.704 7.40733 326.504 8.78033 325.159 10.8269C324.391 11.9744 323.923 13.2864 323.796 14.6492L324.136 14.3186C320.989 14.0545 317.822 14.5349 314.908 15.7188C312.46 16.8541 310.731 19.0698 310.269 21.6638C310.028 23.0405 310.329 24.4549 311.112 25.6264L311.338 25.0869C307.496 26.0333 304.304 28.6228 302.664 32.1254C301.929 33.9021 301.8 35.8608 302.297 37.7138C302.781 39.4162 303.904 40.8812 305.445 41.821C307.087 42.8713 309.127 43.154 311.007 42.5921L310.486 42.3054C311.611 45.5349 314.487 47.8934 317.956 48.4301C321.869 49.1836 325.929 48.6577 329.502 46.9342C331.638 45.9592 333.578 44.6227 335.232 42.9872L334.922 43.112C337.095 43.2422 339.274 42.9814 341.35 42.3426C343.269 41.7868 345.091 40.9513 346.752 39.8646C348.29 38.8815 349.578 37.5732 350.521 36.0381C351.376 34.5922 351.752 32.9253 351.598 31.2647C351.473 29.4255 350.541 27.7267 349.038 26.5994V27.3551C351.151 25.7908 352.317 23.3039 352.144 20.7303C351.941 18.751 350.932 16.9325 349.34 15.6792C347.749 14.4259 345.707 13.8417 343.67 14.0566L343.988 14.803C345.423 13.4683 345.815 11.3916 344.96 9.65015C344.063 7.95665 342.094 7.07263 340.183 7.50564C339.13 7.7077 338.191 8.28 337.546 9.11272C337.429 9.31078 337.497 9.56351 337.699 9.6803C337.904 9.79011 338.161 9.72467 338.284 9.53164C339.288 8.38915 340.915 7.96689 342.373 8.47031C343.845 9.0276 344.723 10.5 344.486 12.0161C344.4 12.8511 343.995 13.6247 343.351 14.1845C343.227 14.3109 343.191 14.4968 343.26 14.6585C343.328 14.8201 343.489 14.9269 343.67 14.9309C346.032 14.6705 348.37 15.5916 349.876 17.3768C351.313 19.1532 351.68 21.5322 350.842 23.6388C350.413 24.8235 349.626 25.8552 348.584 26.5994C348.464 26.6691 348.385 26.7877 348.367 26.9216C348.349 27.0554 348.395 27.1898 348.492 27.2865C350.986 29.4377 351.488 33.034 349.673 35.7511C348.718 37.2438 347.418 38.4995 345.876 39.4187C344.18 40.4665 342.327 41.2524 340.383 41.7481C339.332 42.0267 338.256 42.2053 337.169 42.2815C336.642 42.3147 336.113 42.3114 335.586 42.2948C335.328 42.2551 335.065 42.2488 334.805 42.2762C334.577 42.3934 334.379 42.5589 334.227 42.7606C332.858 44.047 331.298 45.1264 329.599 45.9634C326.366 47.6354 322.676 48.286 319.044 47.824C315.921 47.5438 313.148 45.7695 311.653 43.0944C311.507 42.7684 311.39 42.4312 311.303 42.0861C311.239 41.8683 311.007 41.7408 310.781 41.7991C307.623 42.6583 304.318 40.9989 303.217 38.0008C302.634 36.3341 302.636 34.5269 303.222 32.8614C303.804 31.1995 304.839 29.7219 306.217 28.5859C307.77 27.3046 309.584 26.3541 311.54 25.7958C311.652 25.7642 311.744 25.6842 311.788 25.5788C311.832 25.4734 311.824 25.3542 311.766 25.2553C310.562 23.2368 310.739 20.7113 312.213 18.8696C313.896 16.771 316.405 15.4483 319.134 15.2199C320.792 14.9997 322.465 14.919 324.137 14.9787C324.323 14.9749 324.473 14.8297 324.477 14.6492C324.709 12.4261 325.902 10.4029 327.758 9.08154C329.65 7.77463 332.032 7.32722 334.289 7.85492C335.601 8.14188 336.825 8.72486 337.862 9.55659C337.934 9.61874 338.043 9.61562 338.111 9.54945C338.18 9.4833 338.183 9.37705 338.119 9.30711Z" fill="#8082A5"/>
</g>
<defs>
<clipPath id="clip0_156_491">
<rect width="23" height="23" fill="white" transform="translate(64 5)"/>
</clipPath>
<clipPath id="clip1_156_491">
<rect width="41.4953" height="40" fill="white" transform="matrix(-1 0 0 1 64.4953 0)"/>
</clipPath>
<clipPath id="clip2_156_491">
<rect width="50.1667" height="42" fill="white" transform="translate(302 7)"/>
</clipPath>
</defs>
</svg>
